<svg width="16px" height="16px" viewBox="0 0 1024 1024" data-aut-id="members" class="" fill-rule="evenodd"><path class="rui-w4DG7" d="M341.579 85.3359V127.981H683.211V85.3359H768.619V127.981H895.963L938.667 170.669V895.981L895.963 938.669H128.038L85.3335 895.981V170.669L128.038 127.981H256.15V85.3359H341.579ZM853.259 426.648H170.742V853.315H853.259V426.648ZM320.221 511.988C355.601 511.988 384.277 540.66 384.277 575.988C384.277 611.337 355.601 639.988 320.221 639.988C284.84 639.988 256.165 611.337 256.165 575.988C256.165 540.66 284.84 511.988 320.221 511.988ZM256.15 213.315H170.742V341.336H853.259V213.315H768.619V255.981L725.915 298.648L683.211 255.981V213.315H341.579V255.981L298.875 298.648L256.15 255.981V213.315Z"></path></svg>