<svg preserveAspectRatio="xMidYMid meet" data-bbox="42.501 28.499 115.002 143" viewBox="42.501 28.499 115.002 143" height="200" width="200" xmlns="http://www.w3.org/2000/svg" data-type="color" role="presentation" aria-hidden="true" aria-labelledby="svgcid-mrwt7r-olaksf"><defs><style>#comp-le16x7ra1 svg [data-color="1"] {fill: #035772;}</style></defs><title id="svgcid-mrwt7r-olaksf"></title>
    <g>
        <path d="M129.378 51.213c.625 0 1.237.184 1.757.53.52.345.925.836 1.165 1.41a3.125 3.125 0 0 1-.685 3.423 3.178 3.178 0 0 1-3.446.681 3.153 3.153 0 0 1-1.419-1.157 3.13 3.13 0 0 1 .393-3.966 3.165 3.165 0 0 1 2.235-.921zm-6.325 57.98a1.74 1.74 0 0 1 1.605 1.065 1.71 1.71 0 0 1-.377 1.881 1.75 1.75 0 0 1-1.894.374 1.735 1.735 0 0 1-.78-.636 1.719 1.719 0 0 1 .78-2.554c.213-.085.438-.13.666-.13zm-72.277.098a8.318 8.318 0 0 1 4.601 1.384 8.232 8.232 0 0 1 3.051 3.69 8.175 8.175 0 0 1 .473 4.752 8.206 8.206 0 0 1-2.265 4.212 8.305 8.305 0 0 1-4.239 2.252 8.339 8.339 0 0 1-4.784-.467 8.269 8.269 0 0 1-3.716-3.029 8.184 8.184 0 0 1-1.396-4.569c0-2.181.872-4.272 2.424-5.814a8.302 8.302 0 0 1 5.851-2.411zm105.555-58.595h-15.529a1.126 1.126 0 0 1-.826-.338l-6.164-6.12a1.144 1.144 0 0 0-.826-.338h-11.873a1.152 1.152 0 0 1-1.153-.966l-2.309-13.462a1.132 1.132 0 0 0-.68-.862 1.145 1.145 0 0 0-1.091.058c-13.444 8.008-13.778 43.765-16.141 58.94-2.336 14.641-26.957 25.516-40.462 38.27a.687.687 0 0 0-.088.091c-9.605 11.277-7.14 27.019-4.203 36.719l.027.078 3.036 7.974a1.152 1.152 0 0 0 1.095.75h21.475c7.871 0 19.738-.48 25.1-12.696 2.316-5.275 1.741-10.453-.34-13.777a8.873 8.873 0 0 0-3.285-3.141 7.275 7.275 0 0 0-4.549-.804c-3.186.463-6.641 3.04-9.483 8.623a2.285 2.285 0 0 0-.131 1.744 2.28 2.28 0 0 0 1.149 1.325 2.306 2.306 0 0 0 1.756.129 2.302 2.302 0 0 0 1.333-1.141c2.071-4.073 4.216-5.89 6.025-6.154a2.767 2.767 0 0 1 1.724.304 4.29 4.29 0 0 1 1.55 1.533c1.384 2.195 1.7 5.742.048 9.531-4.352 9.916-15.015 9.967-21.703 9.963a1.153 1.153 0 0 1-1.118-.828c-1.333-4.367-2.785-10.845-2.336-17.326 1.54-21.562 22.961-23.223 25.875-27.499l.02-.034c4.023-6.394 7.702-20.653 16.62-22.825a1.179 1.179 0 0 1 1.33.622c.077.159.118.332.118.509v2.094a1.142 1.142 0 0 0 .745 1.081c3.771 1.472 5.648 2.54 7.011 7.511a1.118 1.118 0 0 0 .585.726c.68.338 1.561.763 2.292 1.135a1.155 1.155 0 0 1 .609 1.318c-.836 3.377-3.842 5.742-7.314 6.154a1.128 1.128 0 0 0-.809.477 1.098 1.098 0 0 0-.2.912c.843 4.11-.435 10.159-1.387 12.594-5.461 13.979-10.34 24.216-.214 37.49a1.136 1.136 0 0 0 .932.459h18.762a1.17 1.17 0 0 0 1.171-1.192 1.148 1.148 0 0 0-.177-.585c-14.437-22.926 13.747-52.384-5.345-96.544a1.165 1.165 0 0 1 .044-1.012 1.177 1.177 0 0 1 .827-.595c11.561-2.026 18.395-7.579 19.643-19.589a1.15 1.15 0 0 0-.295-.898 1.192 1.192 0 0 0-.868-.386v-.002z" fill="#3A467C" clip-rule="evenodd" fill-rule="evenodd" data-color="1"></path>
    </g>
</svg>