<svg xmlns="http://www.w3.org/2000/svg" width="32" height="32" fill="#1B1F23" viewBox="0 0 32 32"><path d="M2.233 25.658a5.96 5.96 0 0 0 1.524 2.585 5.97 5.97 0 0 0 2.753 1.57 7.978 7.978 0 0 1 2.329-5.16 7.977 7.977 0 0 1 4.928-2.311 5.972 5.972 0 0 0-1.524-2.585 5.971 5.971 0 0 0-2.751-1.57 7.977 7.977 0 0 1-2.329 5.16 7.976 7.976 0 0 1-4.93 2.311zm-.224-1.988a5.978 5.978 0 0 0 3.74-1.737 5.979 5.979 0 0 0 1.749-3.912 5.976 5.976 0 0 0-3.74 1.736 5.977 5.977 0 0 0-1.749 3.913zm6.495 6.309a5.976 5.976 0 0 0 3.739-1.736 5.978 5.978 0 0 0 1.748-3.913 5.979 5.979 0 0 0-3.738 1.736 5.979 5.979 0 0 0-1.749 3.913zm9.296-3.984c.134-.66.2-1.332.2-2.004 3.56-.061 6.475-.453 8.593-1.075.927-.273 1.645-.577 2.105-.869.135-.086.236-.164.302-.227-.01-2.803-.26-5.852-.748-9.145C25.472 14.236 21.719 15 17 15c-2.115 0-4.036-.154-5.762-.464a10.002 10.002 0 0 0-2.042-.465c-1.28-.36-2.429-.824-3.448-1.396a79.247 79.247 0 0 0-.225 1.635 9.946 9.946 0 0 0-2.11.801c.153-1.357.349-2.757.588-4.198.027-1.567.781-3 1.999-3.914a5 5 0 0 1 5.505-4.974A5.989 5.989 0 0 1 16 0a5.99 5.99 0 0 1 4.494 2.024 5.004 5.004 0 0 1 4.103 3.005 6 6 0 0 1 5.402 5.885c.517 3.118.834 6.04.95 8.767.68.535 1.051 1.143 1.051 1.819 0 2.758-6.188 4.393-14.2 4.495zm10.17-15.49A4 4 0 0 0 24 7l-.101.001-.795.02-.198-.77A3.001 3.001 0 0 0 20 4h-.5l-.3-.4A3.992 3.992 0 0 0 16 2a3.993 3.993 0 0 0-3.263 1.686l-.39.548-.655-.154a3 3 0 0 0-3.667 3.308l.086.667-.586.332A3 3 0 0 0 6.04 10.51C8.51 12.157 12.16 13 17 13c4.846 0 8.5-.845 10.97-2.495zM13.657 29.657A8 8 0 1 1 2.343 18.343a8 8 0 0 1 11.314 11.314zm-.708-20.09a1 1 0 0 1-1.898-.633c.851-2.553 3.061-3.437 6.191-2.654a1 1 0 1 1-.485 1.94c-2.202-.55-3.326-.101-3.808 1.346z"></path></svg>