<svg preserveAspectRatio="xMidYMid meet" data-bbox="0.006 0 31.264 33.109" xmlns="http://www.w3.org/2000/svg" viewBox="0.006 0 31.264 33.109" height="34" width="32" data-type="color" role="presentation" aria-hidden="true" aria-labelledby="svgcid-nnweyj2q0wzp"><defs><style>#comp-l0jcjv0w svg [data-color="1"] {fill: #035772;}</style></defs><title id="svgcid-nnweyj2q0wzp"></title>
    <g>
        <g clip-path="url(#svgcid-2sd65u7b1pl0)">
            <path fill="#3A467C" d="M22.515 2.988a5.761 5.761 0 0 0-5.707 6.587 5.75 5.75 0 0 0 1.358 2.953c.02.032.044.06.072.086a5.764 5.764 0 0 0 9.11-7.004 5.763 5.763 0 0 0-4.833-2.622Zm3.742 8.815h-7.484a4.765 4.765 0 0 1-.537-.813h8.554c-.151.285-.33.555-.536.804l.003.01Zm-7.514-6.057h7.549c.201.253.377.525.523.814h-8.598c.147-.289.322-.561.524-.814h.002Zm8.433 1.749c.074.265.124.537.15.81h-9.619c.026-.273.076-.545.15-.81h9.319Zm-9.305 2.56a4.636 4.636 0 0 1-.16-.814h9.612a4.636 4.636 0 0 1-.16.814h-9.292ZM25.3 4.81h-5.566a4.802 4.802 0 0 1 5.565 0Zm-5.506 7.918h5.44a4.816 4.816 0 0 1-5.44 0Z" data-color="1"></path>
            <path fill="#3A467C" d="M27.66 15.833a8.778 8.778 0 0 0 3.61-7.165A8.668 8.668 0 0 0 25.858.636 8.675 8.675 0 0 0 22.515 0h-.026a8.682 8.682 0 0 0-6.314 2.726 1.432 1.432 0 0 1-1.04.437H2.62a2.624 2.624 0 0 0-2.614 2.62v5.936a2.623 2.623 0 0 0 2.621 2.62h12.497a1.477 1.477 0 0 1 1.064.454 8.9 8.9 0 0 0 1.207 1.052 1.47 1.47 0 0 1 .582 1.34l-.248 2.337-1.083-.102a.468.468 0 0 0-.51.42l-.233 2.46a.467.467 0 0 0 .42.51l1.053.1-.741 7.032a2.866 2.866 0 0 0 2.853 3.167h6.08a2.869 2.869 0 0 0 2.853-3.167l-1.34-12.72a1.511 1.511 0 0 1 .577-1.389Zm-10.79 6.079.147-1.53.61.06-.161 1.526-.597-.056Zm9.262-4.604 1.34 12.72a1.931 1.931 0 0 1-1.922 2.135h-6.08a1.932 1.932 0 0 1-1.922-2.135l1.342-12.755a2.398 2.398 0 0 0-.963-2.195 8.05 8.05 0 0 1-1.076-.935 2.415 2.415 0 0 0-1.742-.743H2.62a1.687 1.687 0 0 1-1.686-1.686v-5.93A1.685 1.685 0 0 1 2.62 4.098h12.506a2.38 2.38 0 0 0 1.717-.72A7.744 7.744 0 0 1 22.489.944h.023a7.747 7.747 0 0 1 7.82 7.743 7.836 7.836 0 0 1-3.222 6.38 2.46 2.46 0 0 0-.978 2.25v-.009Z" data-color="1"></path>
        </g>
        <defs fill="none">
            <clipPath id="svgcid-2sd65u7b1pl0">
                <path fill="#ffffff" d="M31.27 0v33.109H0V0h31.27z"></path>
            </clipPath>
        </defs>
    </g>
</svg>