<svg preserveAspectRatio="xMidYMid meet" data-bbox="35.501 53.999 129 92" viewBox="35.501 53.999 129 92" height="200" width="200" xmlns="http://www.w3.org/2000/svg" data-type="color" role="presentation" aria-hidden="true" aria-labelledby="svgcid--ss1x3x-2ieazs"><defs><style>#comp-le16zvzz svg [data-color="2"] {fill: #035772;}</style></defs><title id="svgcid--ss1x3x-2ieazs"></title>
    <g>
        <path d="M158.766 84.52c-4.042-3.803-10.428-3.505-14.344.429l-3.496 3.513a2.418 2.418 0 0 1-3.433 0l-3.496-3.513c-3.915-3.934-10.302-4.232-14.344-.429-4.225 3.976-4.308 10.641-.249 14.72l18.088 18.173a2.42 2.42 0 0 0 3.432 0l18.088-18.173c4.062-4.079 3.979-10.744-.246-14.72z" fill="#d1000a9e" data-color="1"></path>
        <path d="M62.916 93.902a2.493 2.493 0 0 0-3.539.001 2.523 2.523 0 0 0 .001 3.556l.821.825a2.492 2.492 0 0 0 3.539-.001 2.523 2.523 0 0 0-.001-3.556l-.821-.825z" fill="#d1000a" data-color="2"></path>
        <path d="M53.848 70.963c-5.302 4.99-6.039 13.159-1.714 19.003a2.494 2.494 0 0 0 3.501.517 2.523 2.523 0 0 0 .514-3.519c-2.805-3.789-2.324-9.091 1.119-12.33 3.597-3.384 9.458-3.188 13.066.438a2.494 2.494 0 0 0 3.539 0 2.524 2.524 0 0 0 0-3.556c-5.496-5.524-14.479-5.771-20.025-.553z" fill="#d1000a" data-color="2"></path>
        <path d="M160.476 82.684c-2.935-2.761-6.948-3.791-10.75-3.151-.338-7.059-3.331-13.582-8.501-18.448-10.474-9.857-27.461-9.37-37.866 1.086l-8.38 8.421a3.31 3.31 0 0 1-4.691 0l-8.38-8.421c-10.406-10.456-27.392-10.943-37.866-1.086-5.384 5.067-8.416 11.93-8.537 19.325-.121 7.396 2.678 14.349 7.882 19.579l43.364 43.566a8.271 8.271 0 0 0 5.883 2.444c2.13 0 4.261-.815 5.883-2.444l30.73-30.873 6.479 6.509a4.903 4.903 0 0 0 3.485 1.448 4.903 4.903 0 0 0 3.485-1.448l18.089-18.173a12.684 12.684 0 0 0 3.714-9.227 12.695 12.695 0 0 0-4.023-9.107zm-65.498 57.315a3.31 3.31 0 0 1-4.691 0L46.924 96.433c-4.236-4.258-6.515-9.918-6.416-15.94.098-6.021 2.568-11.609 6.953-15.736 4.082-3.842 9.388-5.744 14.745-5.744a22.806 22.806 0 0 1 16.162 6.715l8.38 8.421a8.303 8.303 0 0 0 11.768 0l8.38-8.421c8.517-8.559 22.381-8.995 30.907-.971 4.385 4.127 6.855 9.716 6.953 15.736.005.33-.011.656-.02.983a12.875 12.875 0 0 0-2.085 1.694l-3.443 3.46-3.443-3.46c-4.891-4.913-12.886-5.132-17.823-.486a12.693 12.693 0 0 0-4.023 9.107 12.681 12.681 0 0 0 3.715 9.228l8.07 8.108-30.726 30.872zm62.268-42.537l-18.035 18.12-18.035-18.119a7.681 7.681 0 0 1-2.249-5.589 7.688 7.688 0 0 1 2.439-5.518c1.425-1.342 3.279-2.005 5.154-2.005 2.057 0 4.14.798 5.71 2.376l3.496 3.513a4.917 4.917 0 0 0 6.971 0l3.496-3.513c3.002-3.016 7.876-3.184 10.864-.371a7.69 7.69 0 0 1 2.439 5.518 7.686 7.686 0 0 1-2.25 5.588z" fill="#d1000a" data-color="2"></path>
        <path fill="#d1000a" d="M130.836 93.552a2.523 2.523 0 0 1-2.516 2.529 2.523 2.523 0 0 1-2.516-2.529 2.523 2.523 0 0 1 2.516-2.529 2.523 2.523 0 0 1 2.516 2.529z" data-color="2"></path>
    </g>
</svg>