<svg preserveAspectRatio="xMidYMid meet" data-bbox="0.731 0.925 18.137 31.542" xmlns="http://www.w3.org/2000/svg" viewBox="0.731 0.925 18.137 31.542" height="33" width="19" data-type="color" role="presentation" aria-hidden="true" aria-labelledby="svgcid-bqd33e-249vtc"><defs><style>#comp-l0jcjv0q svg [data-color="1"] {fill: #035772;}</style></defs><title id="svgcid-bqd33e-249vtc"></title>
    <g>
        <path fill="#3A467C" d="M11.243 20.315c.116.026.235.039.355.04a1.93 1.93 0 0 0 1.23-.462c.458-.4.775-.933.902-1.52.308-1.314-.307-2.576-1.371-2.813-1.064-.238-2.183.639-2.49 1.952-.307 1.312.31 2.565 1.374 2.803Zm-.452-2.61c.19-.802.809-1.384 1.357-1.257.55.127.85.904.66 1.707a1.918 1.918 0 0 1-.596 1.025.915.915 0 0 1-.759.23c-.546-.117-.849-.902-.662-1.705Z" data-color="1"></path>
        <path fill="#3A467C" d="M15.884 18.887a1.63 1.63 0 0 0-1.442-.093 2.6 2.6 0 0 0-1.18.986 2.504 2.504 0 0 0-.4 1.465c.011.244.081.483.204.697.124.214.297.396.506.532.236.143.509.218.787.215.224-.002.447-.044.655-.125.491-.196.906-.54 1.182-.983.646-.996.511-2.19-.312-2.694Zm-.49 2.203a1.57 1.57 0 0 1-.723.616.592.592 0 0 1-.803-.236.556.556 0 0 1-.062-.295 1.59 1.59 0 0 1 .255-.904c.174-.27.426-.484.724-.616a.91.91 0 0 1 .314-.062.52.52 0 0 1 .281.076c.362.224.367.872.015 1.421Z" data-color="1"></path>
        <path fill="#3A467C" d="M12.703 22.48c-.104-1.295-1.369-2.308-2.906-2.283a3.12 3.12 0 0 0-1.993.725 2.342 2.342 0 0 0-.589.732c-.144.28-.228.586-.248.899-1.3.33-2.157 1.384-2.05 2.563.113 1.23 1.284 2.197 2.721 2.25h.133c.398 0 .792-.071 1.163-.212a2.846 2.846 0 0 1 1.892-.028c.417.143.86.2 1.3.168 1.42-.096 2.566-1.09 2.649-2.307.082-1.172-.785-2.199-2.072-2.508Zm1.133 2.442c-.052.753-.828 1.385-1.771 1.456a2.361 2.361 0 0 1-.92-.117 3.743 3.743 0 0 0-2.551.039c-.293.11-.605.16-.918.145-.946-.034-1.747-.655-1.816-1.412-.068-.757.532-1.412 1.419-1.615a.77.77 0 0 0 .448-.26.737.737 0 0 0 .174-.48c0-.205.047-.408.137-.593.09-.185.22-.348.383-.478a2.16 2.16 0 0 1 1.38-.494h.039c1.045 0 1.891.67 1.913 1.52a.735.735 0 0 0 .184.469c.115.13.273.218.447.247.894.187 1.5.844 1.452 1.573Z" data-color="1"></path>
        <path fill="#3A467C" d="M6.762 19.973a1.95 1.95 0 0 0 1.182.436c.136 0 .27-.016.402-.05 1.057-.27 1.632-1.55 1.284-2.854-.348-1.304-1.494-2.148-2.551-1.879-1.057.27-1.632 1.55-1.282 2.854.15.586.488 1.109.965 1.493Zm.567-3.46a.723.723 0 0 1 .17-.021c.502 0 1.034.523 1.225 1.239.216.798-.063 1.59-.605 1.728a.922.922 0 0 1-.766-.212 1.933 1.933 0 0 1-.629-1.006c-.213-.792.064-1.579.605-1.722v-.007Z" data-color="1"></path>
        <path fill="#3A467C" d="M6.1 22.588c.806-.531.903-1.717.222-2.702-.68-.985-1.844-1.343-2.65-.815a1.57 1.57 0 0 0-.487.548 1.528 1.528 0 0 0-.18.703 2.386 2.386 0 0 0 .444 1.451c.192.306.458.563.773.747.316.185.673.292 1.04.312.299.003.59-.083.838-.244Zm-1.859-1.33a1.504 1.504 0 0 1-.286-.895.649.649 0 0 1 .253-.526.555.555 0 0 1 .308-.085c.21.024.414.094.593.207.178.112.328.263.438.441.37.538.385 1.189.03 1.422-.354.233-.972-.026-1.336-.563Z" data-color="1"></path>
        <path fill="#3A467C" d="M15.472 10.433v-1.9c0-.286-.118-.562-.326-.765a1.128 1.128 0 0 0-.785-.318h-3.214V1.386c0-.122-.05-.24-.138-.326a.479.479 0 0 0-.335-.135h-1.75a.479.479 0 0 0-.334.135.456.456 0 0 0-.138.326v6.047H5.238a1.127 1.127 0 0 0-.785.319 1.074 1.074 0 0 0-.326.766v1.915a3.762 3.762 0 0 0-2.417 1.165 3.588 3.588 0 0 0-.979 2.45v14.795a3.592 3.592 0 0 0 1.094 2.562 3.774 3.774 0 0 0 2.628 1.062h10.693a3.774 3.774 0 0 0 2.63-1.065 3.592 3.592 0 0 0 1.092-2.566V14.04a3.588 3.588 0 0 0-.982-2.446 3.762 3.762 0 0 0-2.414-1.162ZM9.398 1.854h.803v5.58h-.803v-5.58Zm-4.16 6.502h9.123c.044 0 .086.017.117.048a.16.16 0 0 1 .048.114V10.4H5.068V8.518a.158.158 0 0 1 .05-.116.166.166 0 0 1 .12-.046Zm12.684 20.47a2.681 2.681 0 0 1-.814 1.914 2.816 2.816 0 0 1-1.962.795H4.453a2.816 2.816 0 0 1-1.961-.795 2.68 2.68 0 0 1-.815-1.914V14.041a2.68 2.68 0 0 1 .815-1.914 2.816 2.816 0 0 1 1.961-.794h10.693a2.816 2.816 0 0 1 1.962.794 2.68 2.68 0 0 1 .814 1.914v14.785Z" data-color="1"></path>
    </g>
</svg>