<svg preserveAspectRatio="xMidYMid meet" data-bbox="20 20 160 160" viewBox="20 20 160 160" height="200" width="200" xmlns="http://www.w3.org/2000/svg" data-type="color" role="presentation" aria-hidden="true" aria-labelledby="svgcid-vokygb-4cb9ei"><defs><style>#comp-le16sqlz svg [data-color="1"] {fill: #035772;}</style></defs><title id="svgcid-vokygb-4cb9ei"></title>
    <g>
        <path d="M54.286 119.048a3.81 3.81 0 0 1-3.81-3.81V84.762a3.81 3.81 0 1 1 7.62 0v30.476a3.81 3.81 0 0 1-3.81 3.81z" fill="#d1000a" data-color="1"></path>
        <path d="M115.238 149.524H84.762a3.81 3.81 0 0 1-3.81-3.81v-26.667H54.286a3.81 3.81 0 0 1-3.81-3.81V84.762a3.81 3.81 0 0 1 3.81-3.81h26.667V54.286a3.81 3.81 0 0 1 3.81-3.81h30.476a3.81 3.81 0 0 1 3.81 3.81v26.667h26.667a3.81 3.81 0 0 1 3.81 3.81v30.476a3.81 3.81 0 0 1-3.81 3.81h-26.667v26.667a3.811 3.811 0 0 1-3.811 3.808zm-26.667-7.619h22.857v-26.667a3.81 3.81 0 0 1 3.81-3.81h26.667V88.571h-26.667a3.81 3.81 0 0 1-3.81-3.81V58.095H88.571v26.667a3.81 3.81 0 0 1-3.81 3.81H58.095v22.857h26.667a3.81 3.81 0 0 1 3.81 3.81v26.666z" fill="#d1000a" data-color="1"></path>
        <path d="M166.032 180H33.968C26.266 180 20 173.734 20 166.032V33.968C20 26.266 26.266 20 33.968 20h132.064C173.734 20 180 26.266 180 33.968v132.064c0 7.702-6.266 13.968-13.968 13.968zM33.968 27.619a6.356 6.356 0 0 0-6.349 6.349v132.064a6.356 6.356 0 0 0 6.349 6.349h132.064a6.356 6.356 0 0 0 6.349-6.349V33.968a6.356 6.356 0 0 0-6.349-6.349H33.968z" fill="#d1000a" data-color="1"></path>
    </g>
</svg>