<svg preserveAspectRatio="xMidYMid meet" data-bbox="0.434 0.002 36.79 31.27" xmlns="http://www.w3.org/2000/svg" viewBox="0.434 0.002 36.79 31.27" height="32" width="38" data-type="color" role="presentation" aria-hidden="true" aria-labelledby="svgcid-g7xy9nid4q9g"><defs><style>#comp-l0jcjv0i svg [data-color="1"] {fill: #035772;}</style></defs><title id="svgcid-g7xy9nid4q9g"></title>
    <g>
        <g clip-path="url(#svgcid-5g5q3t4le2qp)">
            <path fill="#d1000a" d="M7.893 20.497a3.276 3.276 0 0 0 1.756-.487c.899-.56 1.43-1.524 1.51-2.712a5.855 5.855 0 0 0-1.02-3.43 6.251 6.251 0 0 0-2.861-2.281 3.997 3.997 0 0 0-2.133-.194l-.954-.617a.495.495 0 0 0-.35-.058.478.478 0 0 0-.296.19.442.442 0 0 0 .112.624l.425.277c-.26.163-.492.364-.69.594l-.238-.444a.46.46 0 0 0-.277-.229.495.495 0 0 0-.365.026.454.454 0 0 0-.183.16.533.533 0 0 0-.096-.137.48.48 0 0 0-.337-.134.495.495 0 0 0-.338.134l-.98.914a.439.439 0 0 0-.108.5.462.462 0 0 0 .176.206.492.492 0 0 0 .602-.055l.978-.914a.418.418 0 0 0 .067-.078v.02l.515.985a3.87 3.87 0 0 0-.253 1.166 5.86 5.86 0 0 0 1.022 3.429 6.257 6.257 0 0 0 2.861 2.282c.465.17.958.259 1.455.262ZM4.387 17.46a4.663 4.663 0 0 1-.866-2.874c.055-.893.439-1.599 1.076-2 .37-.228.8-.346 1.24-.339.379.004.754.073 1.107.204a5.305 5.305 0 0 1 2.395 1.921c.581.855.883 1.856.868 2.876-.058.89-.44 1.599-1.078 2.001-.64.402-1.472.446-2.347.135a4.988 4.988 0 0 1-2.395-1.924Z" data-color="1"></path>
            <path fill="#d1000a" d="M22.952 14.349c.28.066.57.1.859.1a4.458 4.458 0 0 0 2.764-1.04 6.735 6.735 0 0 0 2.268-3.61c.57-2.233.017-4.41-1.262-5.66l.113-1.114c.044.04.096.073.152.096l1.3.514a.49.49 0 0 0 .48-.071.44.44 0 0 0 .117-.565.47.47 0 0 0-.234-.207l-1.298-.514a.496.496 0 0 0-.364 0 .467.467 0 0 0-.258.246.492.492 0 0 0-.034.142.486.486 0 0 0-.64-.03.452.452 0 0 0-.17.309l-.056.546a3.514 3.514 0 0 0-.868-.325h-.028l.32-.443a.443.443 0 0 0-.02-.531.478.478 0 0 0-.24-.159.497.497 0 0 0-.292.005.446.446 0 0 0 .248-.404.44.44 0 0 0-.14-.322.479.479 0 0 0-.155-.099l-1.41-.56a.497.497 0 0 0-.365 0 .468.468 0 0 0-.259.248.44.44 0 0 0 0 .35.468.468 0 0 0 .26.248l1.411.56a.495.495 0 0 0 .325.01.446.446 0 0 0-.148.133l-.647.866c-2.087.16-4.083 2.024-4.751 4.638a6.505 6.505 0 0 0 .26 4.203c.565 1.29 1.546 2.157 2.762 2.44Zm-2.094-6.422c.663-2.595 2.783-4.34 4.727-3.883 1.944.456 2.984 2.937 2.32 5.535a5.796 5.796 0 0 1-1.94 3.125c-.883.701-1.873.97-2.786.756-.914-.215-1.67-.89-2.109-1.903a5.621 5.621 0 0 1-.212-3.63Z" data-color="1"></path>
            <path fill="#d1000a" d="M26.162 19.827c-.184-.034-.317-.148-.315-.267v-.032c0-3.198-3.146-5.8-7.015-5.8-3.868 0-7.014 2.601-7.014 5.8v.06c0 .116-.129.228-.308.267-3.268.698-5.47 3.234-5.233 6.03.239 2.883 3.058 5.195 6.55 5.374a8.304 8.304 0 0 0 3.21-.457 8.695 8.695 0 0 1 5.724 0 8.21 8.21 0 0 0 2.758.457c.15 0 .303 0 .453-.014 3.51-.18 6.327-2.513 6.552-5.41.224-2.819-2.035-5.352-5.362-6.008Zm4.415 5.956c-.189 2.446-2.624 4.409-5.65 4.569a7.324 7.324 0 0 1-2.83-.4 9.583 9.583 0 0 0-6.39 0 7.324 7.324 0 0 1-2.828.4c-3.015-.156-5.445-2.104-5.648-4.535-.198-2.337 1.691-4.468 4.491-5.067.29-.049.553-.192.745-.405.191-.213.3-.483.307-.765v-.048c0-2.693 2.72-4.886 6.06-4.886 3.342 0 6.061 2.193 6.061 4.886v.026c.01.284.121.557.318.77.196.214.464.355.758.4 2.85.557 4.78 2.683 4.606 5.055Z" data-color="1"></path>
            <path fill="#d1000a" d="M10.35 2.13h.017a.494.494 0 0 0 .334-.147.454.454 0 0 0 .127-.329v-.011a.493.493 0 0 0 .671.074.445.445 0 0 0 .078-.643l-.623-.818a.614.614 0 0 0-.311-.224.641.641 0 0 0-.39 0 .614.614 0 0 0-.311.224.572.572 0 0 0-.109.359l.043 1.076a.448.448 0 0 0 .146.31.488.488 0 0 0 .329.128Z" data-color="1"></path>
            <path fill="#d1000a" d="M1.7 11.169a.463.463 0 0 0 .177.2.493.493 0 0 0 .45.037.465.465 0 0 0 .249-.253.44.44 0 0 0-.01-.347v-.014c.108.046.23.053.342.019a.474.474 0 0 0 .267-.206.44.44 0 0 0 .054-.324.456.456 0 0 0-.186-.275l-.878-.541a.635.635 0 0 0-.739.032.587.587 0 0 0-.206.317.566.566 0 0 0 .034.373l.446.982Z" data-color="1"></path>
            <path fill="#d1000a" d="M8.348 3.662a.468.468 0 0 0 .184-.034l1.297-.514a.48.48 0 0 0 .153-.096l.112 1.112C8.813 5.38 8.26 7.557 8.83 9.791a6.734 6.734 0 0 0 2.258 3.612 4.459 4.459 0 0 0 2.765 1.04c.29 0 .578-.035.858-.101 1.217-.283 2.197-1.142 2.762-2.435a6.52 6.52 0 0 0 .26-4.204c-.667-2.613-2.661-4.477-4.748-4.637l-.637-.882a.447.447 0 0 0-.148-.133.496.496 0 0 0 .327-.011l1.41-.56a.468.468 0 0 0 .258-.247.44.44 0 0 0 0-.35.468.468 0 0 0-.258-.248.497.497 0 0 0-.366 0l-1.41.56a.48.48 0 0 0-.258.246.44.44 0 0 0-.001.35.465.465 0 0 0 .212.228.497.497 0 0 0-.292-.004.477.477 0 0 0-.24.158.445.445 0 0 0-.019.532l.32.443h-.031c-.303.07-.594.178-.866.322l-.055-.544a.452.452 0 0 0-.171-.308.492.492 0 0 0-.64.03.37.37 0 0 0-.033-.142.467.467 0 0 0-.258-.247.496.496 0 0 0-.365 0l-1.297.514a.47.47 0 0 0-.235.207.44.44 0 0 0 .117.565.49.49 0 0 0 .299.106v.011Zm3.73.384a2.78 2.78 0 0 1 .63-.073c1.753 0 3.506 1.638 4.098 3.954a5.62 5.62 0 0 1-.213 3.633c-.443 1.011-1.192 1.688-2.108 1.902-.916.215-1.908-.054-2.788-.756a5.808 5.808 0 0 1-1.935-3.125c-.668-2.597.372-5.078 2.316-5.535Z" data-color="1"></path>
            <path fill="#d1000a" d="M3.996 10.586a.488.488 0 0 0 .334-.132l1.018-.96a.446.446 0 0 0-.01-.63.49.49 0 0 0-.658-.02l-1.018.959a.439.439 0 0 0-.108.5.461.461 0 0 0 .176.206c.079.05.171.077.266.077Z" data-color="1"></path>
            <path fill="#d1000a" d="M26.197 1.713a.493.493 0 0 0 .641-.07v.011a.44.44 0 0 0 .126.329.476.476 0 0 0 .332.146h.02a.489.489 0 0 0 .33-.127.448.448 0 0 0 .146-.311l.043-1.076a.571.571 0 0 0-.107-.356.613.613 0 0 0-.307-.224.641.641 0 0 0-.387-.005.615.615 0 0 0-.313.217l-.627.827a.447.447 0 0 0-.087.34.444.444 0 0 0 .19.3Z" data-color="1"></path>
            <path fill="#d1000a" d="M35.094 10.792v.014a.439.439 0 0 0-.01.347.465.465 0 0 0 .437.29.493.493 0 0 0 .263-.074.462.462 0 0 0 .176-.2l.446-.99a.566.566 0 0 0 .036-.37.586.586 0 0 0-.203-.316.63.63 0 0 0-.734-.042l-.897.555a.456.456 0 0 0-.186.275.44.44 0 0 0 .054.324.48.48 0 0 0 .267.206.497.497 0 0 0 .342-.02h.01Z" data-color="1"></path>
            <path fill="#d1000a" d="m37.083 12.704-.98-.914a.479.479 0 0 0-.338-.134.495.495 0 0 0-.337.134.527.527 0 0 0-.096.137.44.44 0 0 0-.184-.16.494.494 0 0 0-.527.063.46.46 0 0 0-.114.14l-.239.444a3.023 3.023 0 0 0-.689-.594l.425-.277a.469.469 0 0 0 .215-.292.44.44 0 0 0-.071-.352.467.467 0 0 0-.315-.194.498.498 0 0 0-.364.082l-.954.617a4.01 4.01 0 0 0-2.13.194 5.923 5.923 0 0 0-2.862 2.285c-1.536 2.26-1.316 5.026.49 6.14a3.281 3.281 0 0 0 1.755.487 4.338 4.338 0 0 0 1.443-.26 6.257 6.257 0 0 0 2.861-2.282 5.86 5.86 0 0 0 1.022-3.43 3.882 3.882 0 0 0-.253-1.167l.517-.982v-.02a.418.418 0 0 0 .067.077l.98.914a.488.488 0 0 0 .78-.153.442.442 0 0 0-.102-.503Zm-3.816 4.752a4.986 4.986 0 0 1-2.386 1.923c-.875.311-1.707.263-2.346-.134-1.365-.853-1.46-3.041-.21-4.878a4.994 4.994 0 0 1 2.385-1.921c.353-.131.728-.2 1.107-.203.439-.007.87.11 1.24.338.637.397 1.02 1.108 1.078 2a4.664 4.664 0 0 1-.859 2.88l-.01-.005Z" data-color="1"></path>
            <path fill="#d1000a" d="M33.334 10.454a.478.478 0 0 0 .338.134.495.495 0 0 0 .338-.134.455.455 0 0 0 .14-.323.44.44 0 0 0-.14-.324l-1.019-.96a.489.489 0 0 0-.675.005.447.447 0 0 0 .005.647l1.014.955Z" data-color="1"></path>
        </g>
        <defs fill="none">
            <clipPath id="svgcid-5g5q3t4le2qp">
                <path transform="translate(.438)" fill="#ffffff" d="M36.788 0v31.27H0V0h36.788z"></path>
            </clipPath>
        </defs>
    </g>
</svg>