<?xml version="1.0" standalone="no"?>
<!DOCTYPE svg PUBLIC "-//W3C//DTD SVG 20010904//EN"
 "http://www.w3.org/TR/2001/REC-SVG-20010904/DTD/svg10.dtd">
<svg version="1.0" xmlns="http://www.w3.org/2000/svg"
 width="56.000000pt" height="78.000000pt" viewBox="0 0 56.000000 78.000000"
 preserveAspectRatio="xMidYMid meet">

<g transform="translate(0.000000,78.000000) scale(0.100000,-0.100000)"
fill="#d1000a" stroke="none">
<path d="M167 734 c-8 -16 -31 -79 -51 -139 -20 -61 -41 -118 -47 -129 -8 -14
-8 -21 1 -26 9 -5 9 -9 1 -14 -6 -4 -11 -12 -11 -17 0 -6 4 -8 9 -5 13 8 31
-107 31 -193 0 -79 -13 -113 -63 -171 l-31 -35 62 -3 c50 -2 66 1 82 16 17 16
19 23 10 47 -6 16 -8 48 -4 72 4 26 2 43 -3 43 -13 0 -11 23 7 78 11 34 11 47
1 66 -24 43 -8 61 54 61 30 0 55 -4 55 -9 0 -5 7 -3 15 4 12 10 15 9 15 -7 0
-10 -7 -28 -15 -39 -30 -40 -18 -86 40 -159 39 -48 78 -122 72 -138 -2 -7 -16
13 -31 44 -31 67 -66 88 -109 68 -34 -16 -43 -44 -23 -74 18 -28 47 -32 66
-11 10 13 7 15 -15 13 -35 -3 -55 24 -36 47 21 25 57 19 85 -15 14 -17 26 -36
26 -43 0 -28 48 -66 84 -66 34 0 35 1 25 23 -8 18 -7 37 5 75 24 83 -5 147
-86 188 -26 13 -48 31 -48 39 0 54 150 -55 166 -121 6 -24 3 -65 -12 -142 -6
-29 -4 -33 12 -30 27 5 44 46 44 108 0 87 -40 147 -127 193 -38 20 -77 45 -87
56 -20 22 -32 81 -16 81 5 0 -6 25 -25 55 -38 58 -37 71 1 30 27 -29 54 -32
89 -9 27 17 68 81 60 93 -2 5 -23 11 -46 15 -51 8 -116 53 -124 85 l-6 24 -30
-29 c-16 -15 -29 -23 -29 -18 0 6 -6 19 -14 29 -13 18 -14 17 -29 -11z m3
-205 c0 -6 9 -8 20 -4 32 10 38 -24 9 -46 -13 -10 -26 -19 -29 -19 -11 0 -41
60 -35 70 8 13 35 13 35 -1z m-1 -78 c26 -20 23 -36 -9 -44 -16 -4 -23 1 -31
20 -16 43 1 54 40 24z"/>
</g>
</svg>
